<mxfile host="app.diagrams.net" agent="Mozilla/5.0 (Windows NT 10.0; Win64; x64) AppleWebKit/537.36 (KHTML, like Gecko) Chrome/140.0.0.0 Safari/537.36 Edg/140.0.0.0" version="28.2.3">
  <diagram name="Page-1" id="3kSd-sUkNAx_q8BkjbM5">
    <mxGraphModel dx="1034" dy="570" grid="1" gridSize="10" guides="1" tooltips="1" connect="1" arrows="1" fold="1" page="1" pageScale="1" pageWidth="850" pageHeight="1100" math="0" shadow="0">
      <root>
        <mxCell id="0" />
        <mxCell id="1" parent="0" />
        <mxCell id="91HlV4zJdpcTpn0aKVWZ-1" value="bắt đầu" style="ellipse;whiteSpace=wrap;html=1;" vertex="1" parent="1">
          <mxGeometry x="120" y="120" width="120" height="80" as="geometry" />
        </mxCell>
        <mxCell id="91HlV4zJdpcTpn0aKVWZ-2" value="" style="endArrow=classic;html=1;rounded=0;" edge="1" parent="1" target="91HlV4zJdpcTpn0aKVWZ-3">
          <mxGeometry width="50" height="50" relative="1" as="geometry">
            <mxPoint x="179.5" y="200" as="sourcePoint" />
            <mxPoint x="179.5" y="290" as="targetPoint" />
          </mxGeometry>
        </mxCell>
        <mxCell id="91HlV4zJdpcTpn0aKVWZ-3" value="liệt kê các công việc cần làm trong ngày" style="rounded=0;whiteSpace=wrap;html=1;" vertex="1" parent="1">
          <mxGeometry x="100" y="260" width="160" height="90" as="geometry" />
        </mxCell>
        <mxCell id="91HlV4zJdpcTpn0aKVWZ-4" value="" style="endArrow=classic;html=1;rounded=0;" edge="1" parent="1" target="91HlV4zJdpcTpn0aKVWZ-5">
          <mxGeometry width="50" height="50" relative="1" as="geometry">
            <mxPoint x="179.5" y="350" as="sourcePoint" />
            <mxPoint x="179.5" y="430" as="targetPoint" />
          </mxGeometry>
        </mxCell>
        <mxCell id="91HlV4zJdpcTpn0aKVWZ-5" value="chọn công việc cần làm trước" style="rounded=0;whiteSpace=wrap;html=1;" vertex="1" parent="1">
          <mxGeometry x="110" y="420" width="140" height="60" as="geometry" />
        </mxCell>
        <mxCell id="91HlV4zJdpcTpn0aKVWZ-6" value="" style="endArrow=classic;html=1;rounded=0;" edge="1" parent="1" target="91HlV4zJdpcTpn0aKVWZ-7">
          <mxGeometry width="50" height="50" relative="1" as="geometry">
            <mxPoint x="179.5" y="480" as="sourcePoint" />
            <mxPoint x="179.5" y="560" as="targetPoint" />
          </mxGeometry>
        </mxCell>
        <mxCell id="91HlV4zJdpcTpn0aKVWZ-7" value="Hoàn thành công việc và đánh dấu&amp;nbsp;" style="rounded=0;whiteSpace=wrap;html=1;" vertex="1" parent="1">
          <mxGeometry x="120" y="550" width="120" height="60" as="geometry" />
        </mxCell>
        <mxCell id="91HlV4zJdpcTpn0aKVWZ-8" value="" style="endArrow=classic;html=1;rounded=0;" edge="1" parent="1">
          <mxGeometry width="50" height="50" relative="1" as="geometry">
            <mxPoint x="240" y="579.5" as="sourcePoint" />
            <mxPoint x="320" y="579.5" as="targetPoint" />
          </mxGeometry>
        </mxCell>
        <mxCell id="91HlV4zJdpcTpn0aKVWZ-10" value="" style="endArrow=classic;html=1;rounded=0;" edge="1" parent="1" source="91HlV4zJdpcTpn0aKVWZ-9">
          <mxGeometry width="50" height="50" relative="1" as="geometry">
            <mxPoint x="400" y="620" as="sourcePoint" />
            <mxPoint x="450" y="570" as="targetPoint" />
          </mxGeometry>
        </mxCell>
        <mxCell id="91HlV4zJdpcTpn0aKVWZ-11" value="" style="endArrow=classic;html=1;rounded=0;" edge="1" parent="1" target="91HlV4zJdpcTpn0aKVWZ-9">
          <mxGeometry width="50" height="50" relative="1" as="geometry">
            <mxPoint x="400" y="620" as="sourcePoint" />
            <mxPoint x="450" y="570" as="targetPoint" />
          </mxGeometry>
        </mxCell>
        <mxCell id="91HlV4zJdpcTpn0aKVWZ-12" value="" style="endArrow=classic;html=1;rounded=0;" edge="1" parent="1" source="91HlV4zJdpcTpn0aKVWZ-9">
          <mxGeometry width="50" height="50" relative="1" as="geometry">
            <mxPoint x="400" y="620" as="sourcePoint" />
            <mxPoint x="450" y="570" as="targetPoint" />
          </mxGeometry>
        </mxCell>
        <mxCell id="91HlV4zJdpcTpn0aKVWZ-13" value="" style="endArrow=classic;html=1;rounded=0;" edge="1" parent="1" target="91HlV4zJdpcTpn0aKVWZ-9">
          <mxGeometry width="50" height="50" relative="1" as="geometry">
            <mxPoint x="400" y="620" as="sourcePoint" />
            <mxPoint x="450" y="570" as="targetPoint" />
          </mxGeometry>
        </mxCell>
        <mxCell id="91HlV4zJdpcTpn0aKVWZ-9" value="còn công việc nào chưa xong" style="rhombus;whiteSpace=wrap;html=1;" vertex="1" parent="1">
          <mxGeometry x="320" y="510" width="160" height="140" as="geometry" />
        </mxCell>
        <mxCell id="91HlV4zJdpcTpn0aKVWZ-14" value="" style="endArrow=classic;html=1;rounded=0;entryX=1;entryY=0.5;entryDx=0;entryDy=0;" edge="1" parent="1" target="91HlV4zJdpcTpn0aKVWZ-5">
          <mxGeometry width="50" height="50" relative="1" as="geometry">
            <mxPoint x="400" y="510" as="sourcePoint" />
            <mxPoint x="400" y="390" as="targetPoint" />
            <Array as="points">
              <mxPoint x="400" y="450" />
            </Array>
          </mxGeometry>
        </mxCell>
        <mxCell id="91HlV4zJdpcTpn0aKVWZ-15" value="" style="endArrow=classic;html=1;rounded=0;" edge="1" parent="1">
          <mxGeometry width="50" height="50" relative="1" as="geometry">
            <mxPoint x="399.5" y="650" as="sourcePoint" />
            <mxPoint x="399.5" y="720" as="targetPoint" />
          </mxGeometry>
        </mxCell>
        <mxCell id="91HlV4zJdpcTpn0aKVWZ-16" value="không" style="text;html=1;align=center;verticalAlign=middle;resizable=0;points=[];autosize=1;strokeColor=none;fillColor=none;" vertex="1" parent="1">
          <mxGeometry x="400" y="658" width="60" height="30" as="geometry" />
        </mxCell>
        <mxCell id="91HlV4zJdpcTpn0aKVWZ-17" value="kết thúc" style="ellipse;whiteSpace=wrap;html=1;" vertex="1" parent="1">
          <mxGeometry x="340" y="720" width="120" height="80" as="geometry" />
        </mxCell>
        <mxCell id="91HlV4zJdpcTpn0aKVWZ-18" value="còn" style="text;html=1;align=center;verticalAlign=middle;resizable=0;points=[];autosize=1;strokeColor=none;fillColor=none;" vertex="1" parent="1">
          <mxGeometry x="390" y="428" width="40" height="30" as="geometry" />
        </mxCell>
      </root>
    </mxGraphModel>
  </diagram>
</mxfile>
